<?xml version="1.0" encoding="UTF-8" standalone="no"?><!DOCTYPE svg PUBLIC "-//W3C//DTD SVG 1.1//EN" "http://www.w3.org/Graphics/SVG/1.1/DTD/svg11.dtd"><!-- Generated by graphviz version 2.40.1 (20161225.0304)
 --><!-- Title: G Pages: 1 --><svg xmlns="http://www.w3.org/2000/svg" xmlns:xlink="http://www.w3.org/1999/xlink" width="1144pt" height="753pt" viewBox="0.00 0.00 1143.79 752.98">
<g id="graph0" class="graph" transform="scale(1 1) rotate(0) translate(4 748.9825)">
<title>G</title>
<polygon fill="#ffffff" stroke="transparent" points="-4,4 -4,-748.9825 1139.7928,-748.9825 1139.7928,4 -4,4"/>
<!-- device_iot_11 -->
<g id="node1" class="node">
<title>device_iot_11</title>
<polygon fill="none" stroke="#ff0000" points="64.9412,-455.6841 68.5799,-455.7827 72.181,-455.9301 75.7297,-456.1261 79.2117,-456.3701 82.6131,-456.6614 85.9203,-456.9993 89.1206,-457.3827 92.2018,-457.8107 95.1524,-458.282 97.9618,-458.7954 100.6202,-459.3495 103.1188,-459.9428 105.4497,-460.5736 107.6059,-461.2402 109.5816,-461.9407 111.3718,-462.6733 112.9727,-463.436 114.3815,-464.2266 115.5963,-465.043 116.6165,-465.8829 117.4422,-466.7441 118.0746,-467.6242 118.5156,-468.5208 118.7683,-469.4313 118.8363,-470.3534 118.724,-471.2845 118.4367,-472.222 117.9801,-473.1634 117.3605,-474.1061 116.5848,-475.0475 115.66,-475.9851 114.5937,-476.9162 113.3937,-477.8383 112.0679,-478.7488 110.6243,-479.6454 109.0711,-480.5255 107.4162,-481.3867 105.6677,-482.2266 103.8332,-483.043 101.9204,-483.8336 99.9366,-484.5963 97.8888,-485.3289 95.7836,-486.0294 93.6274,-486.696 91.426,-487.3268 89.185,-487.9201 86.9095,-488.4742 84.6041,-488.9876 82.2731,-489.4589 79.9203,-489.8869 77.5492,-490.2703 75.1628,-490.6082 72.764,-490.8995 70.3551,-491.1435 67.9384,-491.3395 65.5159,-491.4869 63.0893,-491.5855 60.6603,-491.6348 58.2305,-491.6348 55.8015,-491.5855 53.3749,-491.4869 50.9524,-491.3395 48.5357,-491.1435 46.1268,-490.8995 43.728,-490.6082 41.3416,-490.2703 38.9705,-489.8869 36.6177,-489.4589 34.2867,-488.9876 31.9813,-488.4742 29.7058,-487.9201 27.4648,-487.3268 25.2634,-486.696 23.1072,-486.0294 21.0021,-485.3289 18.9542,-484.5963 16.9704,-483.8336 15.0576,-483.043 13.2231,-482.2266 11.4746,-481.3867 9.8197,-480.5255 8.2665,-479.6454 6.8229,-478.7488 5.4971,-477.8383 4.2971,-476.9162 3.2308,-475.9851 2.306,-475.0475 1.5303,-474.1061 .9107,-473.1634 .4541,-472.222 .1668,-471.2845 .0545,-470.3534 .1225,-469.4313 .3752,-468.5208 .8162,-467.6242 1.4486,-466.7441 2.2743,-465.8829 3.2945,-465.043 4.5093,-464.2266 5.9181,-463.436 7.519,-462.6733 9.3092,-461.9407 11.2849,-461.2402 13.4411,-460.5736 15.772,-459.9428 18.2706,-459.3495 20.929,-458.7954 23.7384,-458.282 26.689,-457.8107 29.7702,-457.3827 32.9705,-456.9993 36.2777,-456.6614 39.6791,-456.3701 43.1611,-456.1261 46.7098,-455.9301 50.3109,-455.7827 53.9496,-455.6841 57.6109,-455.6348 61.2799,-455.6348 64.9412,-455.6841"/>
<text text-anchor="middle" x="59.4454" y="-469.4348" font-family="Times,serif" font-size="14.00" fill="#ff0000">device ipv4</text>
</g>
<!-- broker1 -->
<g id="node2" class="node">
<title>broker1</title>
<ellipse fill="none" stroke="#ff0000" cx="806.0087" cy="-365.5336" rx="94.9322" ry="94.9322"/>
<text text-anchor="middle" x="806.0087" y="-361.3336" font-family="Times,serif" font-size="14.00" fill="#ff0000">broker globalip v4/v6</text>
</g>
<!-- device_iot_11&#45;&#45;broker1 -->
<g id="edge1" class="edge">
<title>device_iot_11--broker1</title>
<path fill="none" stroke="#ff0000" d="M118.6059,-472.4274C282.2717,-468.61 331.5162,-460.7692 712.8575,-384.2497"/>
<text text-anchor="middle" x="311.9358" y="-459.8018" font-family="Times,serif" font-size="14.00" fill="#ff0000">pub/sub</text>
</g>
<!-- broker3 -->
<g id="node5" class="node">
<title>broker3</title>
<ellipse fill="none" stroke="#00ff00" cx="806.0087" cy="-581.7359" rx="82.2507" ry="82.2507"/>
<text text-anchor="middle" x="806.0087" y="-577.5359" font-family="Times,serif" font-size="14.00" fill="#00ff00">global brokerip v6</text>
</g>
<!-- broker1&#45;&#45;broker3 -->
<g id="edge10" class="edge">
<title>broker1--broker3</title>
<path fill="none" stroke="#ffa500" d="M832.4892,-456.622C836.222,-475.0009 836.8525,-489.2315 834.3809,-504.0187"/>
<text text-anchor="middle" x="826.8164" y="-485.8672" font-family="Times,serif" font-size="14.00" fill="#ffa500">dht</text>
</g>
<!-- broker2 -->
<g id="node8" class="node">
<title>broker2</title>
<ellipse fill="none" stroke="#0000ff" cx="573.0181" cy="-151.3599" rx="82.2507" ry="82.2507"/>
<text text-anchor="middle" x="573.0181" y="-147.1599" font-family="Times,serif" font-size="14.00" fill="#0000ff">broker globalip v4</text>
</g>
<!-- broker1&#45;&#45;broker2 -->
<g id="edge9" class="edge">
<title>broker1--broker2</title>
<path fill="none" stroke="#ffa500" d="M764.2709,-280.22C735.7896,-228.6573 711.9687,-209.2172 649.6997,-182.2731"/>
<text text-anchor="middle" x="710.7104" y="-226.2146" font-family="Times,serif" font-size="14.00" fill="#ffa500">dht</text>
</g>
<!-- broker4 -->
<g id="node11" class="node">
<title>broker4</title>
<ellipse fill="none" stroke="#00ffff" cx="993.2454" cy="-473.6348" rx="82.2507" ry="82.2507"/>
<text text-anchor="middle" x="993.2454" y="-469.4348" font-family="Times,serif" font-size="14.00" fill="#00ffff">global brokerip v6</text>
</g>
<!-- broker1&#45;&#45;broker4 -->
<g id="edge11" class="edge">
<title>broker1--broker4</title>
<path fill="none" stroke="#ffa500" d="M892.4739,-404.1984C907.2197,-411.0906 918.6982,-416.8202 928.3422,-422.2145"/>
<text text-anchor="middle" x="903.3759" y="-417.9681" font-family="Times,serif" font-size="14.00" fill="#ffa500">dht</text>
</g>
<!-- device_iot_12 -->
<g id="node3" class="node">
<title>device_iot_12</title>
<polygon fill="none" stroke="#ff0000" points="921.2711,-21.0791 924.9097,-21.1776 928.5108,-21.3251 932.0595,-21.5211 935.5415,-21.765 938.9429,-22.0564 942.2502,-22.3942 945.4505,-22.7776 948.5316,-23.2056 951.4822,-23.6769 954.2916,-24.1904 956.9501,-24.7445 959.4487,-25.3377 961.7795,-25.9685 963.9358,-26.6351 965.9114,-27.3356 967.7016,-28.0683 969.3025,-28.8309 970.7113,-29.6215 971.9262,-30.4379 972.9464,-31.2779 973.7721,-32.1391 974.4044,-33.0191 974.8455,-33.9157 975.0981,-34.8263 975.1661,-35.7484 975.0539,-36.6794 974.7666,-37.617 974.31,-38.5584 973.6904,-39.5011 972.9146,-40.4425 971.9898,-41.38 970.9235,-42.3111 969.7235,-43.2332 968.3977,-44.1437 966.9541,-45.0403 965.4009,-45.9204 963.7461,-46.7816 961.9975,-47.6215 960.163,-48.4379 958.2502,-49.2285 956.2664,-49.9912 954.2186,-50.7238 952.1134,-51.4243 949.9572,-52.0909 947.7558,-52.7217 945.5149,-53.315 943.2394,-53.8691 940.934,-54.3825 938.603,-54.8538 936.2501,-55.2818 933.879,-55.6652 931.4926,-56.0031 929.0938,-56.2944 926.6849,-56.5384 924.2682,-56.7344 921.8457,-56.8818 919.4191,-56.9804 916.9901,-57.0297 914.5603,-57.0297 912.1314,-56.9804 909.7048,-56.8818 907.2822,-56.7344 904.8655,-56.5384 902.4567,-56.2944 900.0578,-56.0031 897.6714,-55.6652 895.3003,-55.2818 892.9475,-54.8538 890.6165,-54.3825 888.3111,-53.8691 886.0356,-53.315 883.7946,-52.7217 881.5933,-52.0909 879.4371,-51.4243 877.3319,-50.7238 875.284,-49.9912 873.3002,-49.2285 871.3874,-48.4379 869.553,-47.6215 867.8044,-46.7816 866.1495,-45.9204 864.5963,-45.0403 863.1528,-44.1437 861.827,-43.2332 860.6269,-42.3111 859.5607,-41.38 858.6359,-40.4425 857.8601,-39.5011 857.2405,-38.5584 856.7839,-37.617 856.4966,-36.6794 856.3844,-35.7484 856.4524,-34.8263 856.705,-33.9157 857.1461,-33.0191 857.7784,-32.1391 858.6041,-31.2779 859.6243,-30.4379 860.8392,-29.6215 862.248,-28.8309 863.8489,-28.0683 865.6391,-27.3356 867.6147,-26.6351 869.7709,-25.9685 872.1018,-25.3377 874.6004,-24.7445 877.2588,-24.1904 880.0682,-23.6769 883.0188,-23.2056 886.1,-22.7776 889.3003,-22.3942 892.6076,-22.0564 896.0089,-21.765 899.4909,-21.5211 903.0397,-21.3251 906.6407,-21.1776 910.2794,-21.0791 913.9408,-21.0297 917.6097,-21.0297 921.2711,-21.0791"/>
<text text-anchor="middle" x="915.7752" y="-34.8297" font-family="Times,serif" font-size="14.00" fill="#ff0000">device ipv6</text>
</g>
<!-- device_iot_12&#45;&#45;broker1 -->
<g id="edge2" class="edge">
<title>device_iot_12--broker1</title>
<path fill="none" stroke="#ff0000" d="M916.427,-57.3343C919.537,-149.2255 916.3452,-171.3661 853.1816,-283.3992"/>
<text text-anchor="middle" x="887.4893" y="-167.0136" font-family="Times,serif" font-size="14.00" fill="#ff0000">pub/sub</text>
</g>
<!-- device_iot_31 -->
<g id="node4" class="node">
<title>device_iot_31</title>
<polygon fill="none" stroke="#00ff00" points="835.327,-709.0318 838.9656,-709.1304 842.5667,-709.2779 846.1154,-709.4739 849.5975,-709.7178 852.9988,-710.0091 856.3061,-710.347 859.5064,-710.7304 862.5875,-711.1584 865.5381,-711.6297 868.3475,-712.1432 871.006,-712.6973 873.5046,-713.2905 875.8355,-713.9213 877.9917,-714.5879 879.9673,-715.2884 881.7575,-716.0211 883.3584,-716.7837 884.7672,-717.5743 885.9821,-718.3907 887.0023,-719.2307 887.828,-720.0918 888.4603,-720.9719 888.9014,-721.8685 889.154,-722.7791 889.222,-723.7011 889.1098,-724.6322 888.8225,-725.5698 888.3659,-726.5112 887.7463,-727.4539 886.9705,-728.3953 886.0457,-729.3328 884.9794,-730.2639 883.7794,-731.186 882.4536,-732.0965 881.0101,-732.9931 879.4568,-733.8732 877.802,-734.7344 876.0534,-735.5743 874.2189,-736.3907 872.3061,-737.1813 870.3223,-737.944 868.2745,-738.6766 866.1693,-739.3771 864.0131,-740.0437 861.8118,-740.6745 859.5708,-741.2678 857.2953,-741.8219 854.9899,-742.3353 852.6589,-742.8066 850.3061,-743.2346 847.9349,-743.618 845.5486,-743.9559 843.1497,-744.2472 840.7408,-744.4912 838.3241,-744.6872 835.9016,-744.8346 833.475,-744.9332 831.046,-744.9825 828.6163,-744.9825 826.1873,-744.9332 823.7607,-744.8346 821.3381,-744.6872 818.9214,-744.4912 816.5126,-744.2472 814.1137,-743.9559 811.7274,-743.618 809.3562,-743.2346 807.0034,-742.8066 804.6724,-742.3353 802.367,-741.8219 800.0915,-741.2678 797.8505,-740.6745 795.6492,-740.0437 793.493,-739.3771 791.3878,-738.6766 789.34,-737.944 787.3561,-737.1813 785.4433,-736.3907 783.6089,-735.5743 781.8603,-734.7344 780.2054,-733.8732 778.6522,-732.9931 777.2087,-732.0965 775.8829,-731.186 774.6828,-730.2639 773.6166,-729.3328 772.6918,-728.3953 771.916,-727.4539 771.2964,-726.5112 770.8398,-725.5698 770.5525,-724.6322 770.4403,-723.7011 770.5083,-722.7791 770.7609,-721.8685 771.202,-720.9719 771.8343,-720.0918 772.66,-719.2307 773.6802,-718.3907 774.8951,-717.5743 776.3039,-716.7837 777.9048,-716.0211 779.695,-715.2884 781.6706,-714.5879 783.8268,-713.9213 786.1577,-713.2905 788.6563,-712.6973 791.3147,-712.1432 794.1241,-711.6297 797.0747,-711.1584 800.1559,-710.7304 803.3562,-710.347 806.6635,-710.0091 810.0648,-709.7178 813.5468,-709.4739 817.0956,-709.2779 820.6966,-709.1304 824.3353,-709.0318 827.9967,-708.9825 831.6656,-708.9825 835.327,-709.0318"/>
<text text-anchor="middle" x="829.8311" y="-722.7825" font-family="Times,serif" font-size="14.00" fill="#00ff00">device ipv6</text>
</g>
<!-- device_iot_31&#45;&#45;broker3 -->
<g id="edge3" class="edge">
<title>device_iot_31--broker3</title>
<path fill="none" stroke="#00ff00" d="M832.4694,-708.6945C834.771,-690.8546 834.8509,-679.2922 830.5112,-660.6055"/>
<text text-anchor="middle" x="811.8132" y="-689.1675" font-family="Times,serif" font-size="14.00" fill="#00ff00">pub/sub</text>
</g>
<!-- broker3&#45;&#45;broker4 -->
<g id="edge12" class="edge">
<title>broker3--broker4</title>
<path fill="none" stroke="#ffa500" d="M885.4404,-559.3747C909.4755,-551.7065 925.2253,-544.8085 938.4371,-535.3626"/>
<text text-anchor="middle" x="907.0522" y="-552.2353" font-family="Times,serif" font-size="14.00" fill="#ffa500">dht</text>
</g>
<!-- device_iot_32 -->
<g id="node6" class="node">
<title>device_iot_32</title>
<polygon fill="none" stroke="#00ff00" points="673.8062,-615.7778 677.4448,-615.8763 681.0459,-616.0238 684.5946,-616.2198 688.0767,-616.4638 691.478,-616.7551 694.7853,-617.0929 697.9856,-617.4763 701.0667,-617.9043 704.0173,-618.3756 706.8267,-618.8891 709.4852,-619.4432 711.9838,-620.0364 714.3146,-620.6672 716.4709,-621.3338 718.4465,-622.0344 720.2367,-622.767 721.8376,-623.5296 723.2464,-624.3202 724.4613,-625.1366 725.4815,-625.9766 726.3072,-626.8378 726.9395,-627.7178 727.3806,-628.6144 727.6332,-629.525 727.7012,-630.4471 727.589,-631.3782 727.3017,-632.3157 726.8451,-633.2571 726.2255,-634.1998 725.4497,-635.1412 724.5249,-636.0787 723.4586,-637.0098 722.2586,-637.9319 720.9328,-638.8425 719.4892,-639.739 717.936,-640.6191 716.2812,-641.4803 714.5326,-642.3202 712.6981,-643.1366 710.7853,-643.9272 708.8015,-644.6899 706.7537,-645.4225 704.6485,-646.1231 702.4923,-646.7896 700.2909,-647.4204 698.05,-648.0137 695.7745,-648.5678 693.4691,-649.0812 691.1381,-649.5526 688.7852,-649.9805 686.4141,-650.364 684.0277,-650.7018 681.6289,-650.9931 679.22,-651.2371 676.8033,-651.4331 674.3808,-651.5806 671.9542,-651.6791 669.5252,-651.7284 667.0954,-651.7284 664.6665,-651.6791 662.2399,-651.5806 659.8173,-651.4331 657.4006,-651.2371 654.9918,-650.9931 652.5929,-650.7018 650.2065,-650.364 647.8354,-649.9805 645.4826,-649.5526 643.1516,-649.0812 640.8462,-648.5678 638.5707,-648.0137 636.3297,-647.4204 634.1284,-646.7896 631.9722,-646.1231 629.867,-645.4225 627.8191,-644.6899 625.8353,-643.9272 623.9225,-643.1366 622.0881,-642.3202 620.3395,-641.4803 618.6846,-640.6191 617.1314,-639.739 615.6879,-638.8425 614.3621,-637.9319 613.162,-637.0098 612.0958,-636.0787 611.171,-635.1412 610.3952,-634.1998 609.7756,-633.2571 609.319,-632.3157 609.0317,-631.3782 608.9195,-630.4471 608.9875,-629.525 609.2401,-628.6144 609.6812,-627.7178 610.3135,-626.8378 611.1392,-625.9766 612.1594,-625.1366 613.3743,-624.3202 614.7831,-623.5296 616.384,-622.767 618.1742,-622.0344 620.1498,-621.3338 622.306,-620.6672 624.6369,-620.0364 627.1355,-619.4432 629.7939,-618.8891 632.6033,-618.3756 635.5539,-617.9043 638.6351,-617.4763 641.8354,-617.0929 645.1427,-616.7551 648.544,-616.4638 652.026,-616.2198 655.5748,-616.0238 659.1758,-615.8763 662.8145,-615.7778 666.4759,-615.7284 670.1448,-615.7284 673.8062,-615.7778"/>
<text text-anchor="middle" x="668.3103" y="-629.5284" font-family="Times,serif" font-size="14.00" fill="#00ff00">device ipv6</text>
</g>
<!-- device_iot_32&#45;&#45;broker3 -->
<g id="edge4" class="edge">
<title>device_iot_32--broker3</title>
<path fill="none" stroke="#00ff00" d="M727.7011,-630.8215C731.5317,-630.3364 735.0606,-629.7534 738.368,-629.0423"/>
<text text-anchor="middle" x="755.3984" y="-634.2167" font-family="Times,serif" font-size="14.00" fill="#00ff00">pub/sub</text>
</g>
<!-- viewer_iot_21 -->
<g id="node7" class="node">
<title>viewer_iot_21</title>
<polygon fill="none" stroke="#0000ff" points="470.5044,-302.7198 396.5492,-302.7198 396.5492,-306.7198 384.5492,-306.7198 384.5492,-266.7198 470.5044,-266.7198 470.5044,-302.7198"/>
<polyline fill="none" stroke="#0000ff" points="384.5492,-302.7198 396.5492,-302.7198 "/>
<text text-anchor="middle" x="427.5268" y="-280.5198" font-family="Times,serif" font-size="14.00" fill="#0000ff">viewer ipv4 </text>
</g>
<!-- viewer_iot_21&#45;&#45;broker2 -->
<g id="edge5" class="edge">
<title>viewer_iot_21--broker2</title>
<path fill="none" stroke="#0000ff" d="M437.5667,-266.6101C463.3902,-220.2086 476.6437,-198.6481 496.9344,-183.9563"/>
<text text-anchor="middle" x="447.1578" y="-217.5921" font-family="Times,serif" font-size="14.00" fill="#0000ff">pub/sub</text>
</g>
<!-- owner_iot_22 -->
<g id="node9" class="node">
<title>owner_iot_22</title>
<polygon fill="none" stroke="#0000ff" points="758.3826,-36 678.636,-36 678.636,-32 674.636,-32 674.636,-28 678.636,-28 678.636,-8 674.636,-8 674.636,-4 678.636,-4 678.636,0 758.3826,0 758.3826,-36"/>
<polyline fill="none" stroke="#0000ff" points="678.636,-32 682.636,-32 682.636,-28 678.636,-28 "/>
<polyline fill="none" stroke="#0000ff" points="678.636,-8 682.636,-8 682.636,-4 678.636,-4 "/>
<text text-anchor="middle" x="718.5093" y="-13.8" font-family="Times,serif" font-size="14.00" fill="#0000ff">owner ipv4</text>
</g>
<!-- owner_iot_22&#45;&#45;broker2 -->
<g id="edge6" class="edge">
<title>owner_iot_22--broker2</title>
<path fill="none" stroke="#0000ff" d="M681.1153,-36.1583C661.6877,-47.0614 648.3138,-59.0706 624.7082,-87.1136"/>
<text text-anchor="middle" x="632.3109" y="-42.6085" font-family="Times,serif" font-size="14.00" fill="#0000ff">pub/sub</text>
</g>
<!-- viewer_iot_41 -->
<g id="node10" class="node">
<title>viewer_iot_41</title>
<polygon fill="none" stroke="#00ffff" points="1136.033,-417.2172 1065.075,-417.2172 1065.075,-421.2172 1053.075,-421.2172 1053.075,-381.2172 1136.033,-381.2172 1136.033,-417.2172"/>
<polyline fill="none" stroke="#00ffff" points="1053.075,-417.2172 1065.075,-417.2172 "/>
<text text-anchor="middle" x="1094.554" y="-395.0172" font-family="Times,serif" font-size="14.00" fill="#00ffff">viewer ipv6</text>
</g>
<!-- viewer_iot_41&#45;&#45;broker4 -->
<g id="edge7" class="edge">
<title>viewer_iot_41--broker4</title>
<path fill="none" stroke="#00ffff" d="M1082.8171,-417.2487C1077.457,-424.9827 1072.6769,-430.7072 1066.4727,-435.8943"/>
<text text-anchor="middle" x="1097.129" y="-431.7266" font-family="Times,serif" font-size="14.00" fill="#00ffff">pub/sub</text>
</g>
<!-- owner_iot_42 -->
<g id="node12" class="node">
<title>owner_iot_42</title>
<polygon fill="none" stroke="#00ffff" points="1133.9371,-567.5256 1054.1905,-567.5256 1054.1905,-563.5256 1050.1905,-563.5256 1050.1905,-559.5256 1054.1905,-559.5256 1054.1905,-539.5256 1050.1905,-539.5256 1050.1905,-535.5256 1054.1905,-535.5256 1054.1905,-531.5256 1133.9371,-531.5256 1133.9371,-567.5256"/>
<polyline fill="none" stroke="#00ffff" points="1054.1905,-563.5256 1058.1905,-563.5256 1058.1905,-559.5256 1054.1905,-559.5256 "/>
<polyline fill="none" stroke="#00ffff" points="1054.1905,-539.5256 1058.1905,-539.5256 1058.1905,-535.5256 1054.1905,-535.5256 "/>
<text text-anchor="middle" x="1094.0638" y="-545.3256" font-family="Times,serif" font-size="14.00" fill="#00ffff">owner ipv4</text>
</g>
<!-- owner_iot_42&#45;&#45;broker4 -->
<g id="edge8" class="edge">
<title>owner_iot_42--broker4</title>
<path fill="none" stroke="#00ffff" d="M1078.2141,-531.4542C1073.5013,-526.5107 1068.8927,-522.3029 1062.9463,-517.7451"/>
<text text-anchor="middle" x="1093.2104" y="-511.855" font-family="Times,serif" font-size="14.00" fill="#00ffff">pub/sub</text>
</g>
</g>
</svg>